<svg width="24" height="24" viewBox="0 0 24 24" fill="none" xmlns="http://www.w3.org/2000/svg">
<g clip-path="url(#clip0_65_195)">
<path d="M8 12H16M12 8V16M22 12C22 17.5228 17.5228 22 12 22C6.47715 22 2 17.5228 2 12C2 6.47715 6.47715 2 12 2C17.5228 2 22 6.47715 22 12Z" stroke="black" stroke-width="2" stroke-linecap="round" stroke-linejoin="round"/>
<path d="M19.4293 7.62982C16.0966 1.96427 7.90337 1.96427 4.57069 7.62982C2.98398 10.3272 2.98398 13.6728 4.57069 16.3702C7.90337 22.0357 16.0966 22.0357 19.4293 16.3702C21.016 13.6728 21.016 10.3272 19.4293 7.62982Z" fill="black" stroke="black" stroke-width="2"/>
<path d="M12 8V16M8 12H16" stroke="white" stroke-width="2" stroke-linecap="round"/>
</g>
<defs>
<clipPath id="clip0_65_195">
<rect width="24" height="24" fill="white"/>
</clipPath>
</defs>
</svg>
