<svg width="30" height="30" viewBox="0 0 30 30" fill="none" xmlns="http://www.w3.org/2000/svg">
<path d="M3.75 13.7502L25.25 7.50019L24.25 4.25019C23.875 3.00019 22.5 2.25019 21.125 2.62519L4.25 7.62519C3 8.00019 2.25 9.37519 2.625 10.7502L3.75 13.7502ZM3.75 13.7502H26.25V23.7502C26.25 24.4132 25.9866 25.0491 25.5178 25.518C25.0489 25.9868 24.413 26.2502 23.75 26.2502H6.25C5.58696 26.2502 4.95108 25.9868 4.48224 25.518C4.01339 25.0491 3.75 24.4132 3.75 23.7502V13.7502ZM7.75 6.62519L11.625 11.5002M15.5 4.25019L19.375 9.25019" stroke="black" stroke-width="2" stroke-linecap="round" stroke-linejoin="round"/>
</svg>
