<svg width="30" height="30" viewBox="0 0 30 30" fill="none" xmlns="http://www.w3.org/2000/svg">
<path d="M26.25 18.75L22.3925 14.8925C21.9237 14.4238 21.2879 14.1605 20.625 14.1605C19.9621 14.1605 19.3263 14.4238 18.8575 14.8925L7.5 26.25M6.25 3.75H23.75C25.1307 3.75 26.25 4.86929 26.25 6.25V23.75C26.25 25.1307 25.1307 26.25 23.75 26.25H6.25C4.86929 26.25 3.75 25.1307 3.75 23.75V6.25C3.75 4.86929 4.86929 3.75 6.25 3.75ZM13.75 11.25C13.75 12.6307 12.6307 13.75 11.25 13.75C9.86929 13.75 8.75 12.6307 8.75 11.25C8.75 9.86929 9.86929 8.75 11.25 8.75C12.6307 8.75 13.75 9.86929 13.75 11.25Z" stroke="black" stroke-width="2" stroke-linecap="round" stroke-linejoin="round"/>
</svg>
