<svg width="24" height="24" viewBox="0 0 24 24" fill="none" xmlns="http://www.w3.org/2000/svg">
<path d="M10.3 15H7C5.93913 15 4.92172 15.4214 4.17157 16.1716C3.42143 16.9217 3 17.9391 3 19V21M21 21L19.1 19.1M14 7C14 9.20914 12.2091 11 10 11C7.79086 11 6 9.20914 6 7C6 4.79086 7.79086 3 10 3C12.2091 3 14 4.79086 14 7ZM20 17C20 18.6569 18.6569 20 17 20C15.3431 20 14 18.6569 14 17C14 15.3431 15.3431 14 17 14C18.6569 14 20 15.3431 20 17Z" stroke="black" stroke-width="2" stroke-linecap="round" stroke-linejoin="round"/>
<path d="M10 4L7.5 5.5V8L9 10H10H11.5L13 8V5.5L10 4Z" fill="black" stroke="black" stroke-width="2"/>
<path d="M3 21H11C11.5523 21 12 20.5523 12 20V16C12 15.4477 11.5523 15 11 15H8.82047C8.61204 15 8.40883 15.0651 8.23923 15.1863L5 17.5L3 21Z" fill="black" stroke="black" stroke-width="2" stroke-miterlimit="1.1992"/>
</svg>
