<svg width="192" height="50" viewBox="0 0 192 50" fill="none" xmlns="http://www.w3.org/2000/svg">
<path d="M1.10248 1.5L1.75184 0.739523C1.45511 0.486148 1.03811 0.428504 0.683769 0.59188C0.329429 0.755256 0.102478 1.10981 0.102478 1.5L1.10248 1.5ZM0.102478 46.9572V47.9572H2.10248V46.9572H0.102478ZM54.3377 46.9571L53.6883 47.7176C53.985 47.971 54.402 48.0286 54.7564 47.8652C55.1107 47.7019 55.3377 47.3473 55.3377 46.9571H54.3377ZM55.3377 1.5C55.3377 0.947715 54.8899 0.5 54.3377 0.5C53.7854 0.5 53.3377 0.947715 53.3377 1.5H55.3377ZM1.10248 1.5H0.102478V46.9572H1.10248H2.10248V1.5H1.10248ZM1.10248 1.5L0.453113 2.26048L53.6883 47.7176L54.3377 46.9571L54.987 46.1966L1.75184 0.739523L1.10248 1.5ZM54.3377 46.9571H55.3377V1.5H54.3377H53.3377V46.9571H54.3377Z" fill="#030712"/>
<path d="M54.3376 1.5H102.944M55.1103 24.8113H93.6854M54.3376 46.9571H102.944" stroke="#030712" stroke-width="2" stroke-linecap="round"/>
<path d="M103.612 0.755999C103.201 0.386974 102.569 0.420921 102.2 0.831822C101.831 1.24272 101.865 1.87498 102.276 2.244L103.612 0.755999ZM142.728 38.5742L143.472 39.2423L144.809 37.7543L144.065 37.0862L142.728 38.5742ZM102.286 46.2035C101.87 46.5665 101.827 47.1982 102.19 47.6144C102.553 48.0307 103.185 48.0738 103.601 47.7107L102.286 46.2035ZM155.717 2.25363C156.134 1.8906 156.177 1.2589 155.814 0.842696C155.451 0.426487 154.819 0.383374 154.403 0.746401L155.717 2.25363ZM102.944 1.5L102.276 2.244L142.728 38.5742L143.397 37.8302L144.065 37.0862L103.612 0.755999L102.944 1.5ZM102.944 46.9571L103.601 47.7107L155.717 2.25363L155.06 1.50001L154.403 0.746401L102.286 46.2035L102.944 46.9571Z" fill="#030712"/>
<path d="M144.606 10.8245V34.1359V43.1227C144.606 45.8841 146.845 48.1227 149.606 48.1227H185.897C188.659 48.1227 190.897 45.8841 190.897 43.1227V1.5" stroke="#030712" stroke-width="2" stroke-linecap="round" stroke-linejoin="round"/>
</svg>
