<svg width="192" height="49" viewBox="0 0 192 49" fill="none" xmlns="http://www.w3.org/2000/svg">
<path d="M1 1L1.64937 0.239523C1.35263 -0.0138525 0.93563 -0.0714965 0.581291 0.0918796C0.226951 0.255256 0 0.60981 0 1L1 1ZM0 46.4572V47.4572H2V46.4572H1H0ZM54.2352 46.4571L53.5858 47.2176C53.8826 47.471 54.2996 47.5286 54.6539 47.3652C55.0082 47.2019 55.2352 46.8473 55.2352 46.4571H54.2352ZM55.2352 1C55.2352 0.447715 54.7875 0 54.2352 0C53.6829 0 53.2352 0.447715 53.2352 1H54.2352H55.2352ZM1 1H0V46.4572H1H2V1H1ZM1 1L0.350635 1.76048L53.5858 47.2176L54.2352 46.4571L54.8846 45.6966L1.64937 0.239523L1 1ZM54.2352 46.4571H55.2352V1H54.2352H53.2352V46.4571H54.2352Z" fill="#F9FAFB"/>
<path d="M54.2352 1H102.841M55.0078 24.3113H93.5829M54.2352 46.4571H102.841" stroke="#F9FAFB" stroke-width="2" stroke-linecap="round"/>
<path d="M103.509 0.255999C103.099 -0.113026 102.466 -0.0790789 102.097 0.331822C101.728 0.742722 101.762 1.37498 102.173 1.744L102.841 1L103.509 0.255999ZM142.626 38.0742L143.37 38.7423L144.706 37.2543L143.962 36.5862L143.294 37.3302L142.626 38.0742ZM102.184 45.7035C101.768 46.0665 101.725 46.6982 102.088 47.1144C102.451 47.5307 103.082 47.5738 103.499 47.2107L102.841 46.4571L102.184 45.7035ZM155.615 1.75363C156.031 1.3906 156.074 0.758905 155.711 0.342696C155.348 -0.0735133 154.717 -0.116626 154.3 0.246401L154.958 1.00001L155.615 1.75363ZM102.841 1L102.173 1.744L142.626 38.0742L143.294 37.3302L143.962 36.5862L103.509 0.255999L102.841 1ZM102.841 46.4571L103.499 47.2107L155.615 1.75363L154.958 1.00001L154.3 0.246401L102.184 45.7035L102.841 46.4571Z" fill="#F9FAFB"/>
<path d="M144.504 10.3245V33.6359V42.6227C144.504 45.3841 146.742 47.6227 149.504 47.6227H185.795C188.556 47.6227 190.795 45.3841 190.795 42.6227V1" stroke="#F9FAFB" stroke-width="2" stroke-linecap="round" stroke-linejoin="round"/>
</svg>
